<svg width="512" height="487" viewBox="0 0 512 487" fill="none" xmlns="http://www.w3.org/2000/svg">
<path opacity="0.5" d="M255.998 462.65C377.031 462.65 475.148 364.533 475.148 243.5C475.148 122.467 377.031 24.3501 255.998 24.3501C134.964 24.3501 36.8477 122.467 36.8477 243.5C36.8477 364.533 134.964 462.65 255.998 462.65Z" fill="#FFF4F0"/>
<path opacity="0.5" d="M255.997 413.95C350.134 413.95 426.447 337.637 426.447 243.5C426.447 149.363 350.134 73.0498 255.997 73.0498C161.86 73.0498 85.5469 149.363 85.5469 243.5C85.5469 337.637 161.86 413.95 255.997 413.95Z" fill="#FFD7CA"/>
<path d="M255.998 107.4C304.698 107.4 353.398 119.575 353.398 119.575V229.15C353.398 302.2 255.998 363.075 255.998 363.075C255.998 363.075 158.598 302.2 158.598 229.15V119.575C158.598 119.575 207.298 107.4 255.998 107.4Z" fill="#F16136" stroke="white" stroke-width="3.6525"/>
<path opacity="0.3" d="M256 107.4C304.7 107.4 353.4 119.575 353.4 119.575V229.15C353.4 302.2 256 363.075 256 363.075V107.4Z" fill="#E6A18C"/>
<path d="M256.002 219.15C269.45 219.15 280.352 208.248 280.352 194.8C280.352 181.352 269.45 170.45 256.002 170.45C242.554 170.45 231.652 181.352 231.652 194.8C231.652 208.248 242.554 219.15 256.002 219.15Z" fill="white"/>
<path d="M255.998 225.237C225.56 225.237 219.473 243.5 219.473 261.762H292.523C292.523 243.5 286.435 225.237 255.998 225.237Z" fill="white"/>
<path d="M408.191 140.013H371.666C368.304 140.013 365.578 142.738 365.578 146.1V176.538C365.578 179.9 368.304 182.625 371.666 182.625H408.191C411.553 182.625 414.278 179.9 414.278 176.538V146.1C414.278 142.738 411.553 140.013 408.191 140.013Z" fill="#F59E0B"/>
<path opacity="0.5" d="M404.537 146.1H375.317C373.299 146.1 371.664 147.735 371.664 149.753V172.885C371.664 174.902 373.299 176.538 375.317 176.538H404.537C406.554 176.538 408.189 174.902 408.189 172.885V149.753C408.189 147.735 406.554 146.1 404.537 146.1Z" fill="#FCD34D"/>
<path d="M377.75 140.012V133.925C377.75 127.837 381.402 121.75 389.925 121.75C398.447 121.75 402.1 127.837 402.1 133.925V140.012" stroke="#F59E0B" stroke-width="4.87"/>
<path d="M389.929 165.58C392.618 165.58 394.799 163.399 394.799 160.71C394.799 158.02 392.618 155.84 389.929 155.84C387.239 155.84 385.059 158.02 385.059 160.71C385.059 163.399 387.239 165.58 389.929 165.58Z" fill="#F59E0B"/>
<path d="M109.898 316.55C116.622 316.55 122.073 311.099 122.073 304.375C122.073 297.651 116.622 292.2 109.898 292.2C103.174 292.2 97.7227 297.651 97.7227 304.375C97.7227 311.099 103.174 316.55 109.898 316.55Z" fill="#10B981" stroke="#059669" stroke-width="2.435"/>
<path d="M109.9 310.463C113.262 310.463 115.987 307.737 115.987 304.375C115.987 301.013 113.262 298.288 109.9 298.288C106.538 298.288 103.812 301.013 103.812 304.375C103.812 307.737 106.538 310.463 109.9 310.463Z" fill="white"/>
<path d="M146.422 301.94H115.984V306.81H146.422V301.94Z" fill="#10B981"/>
<path d="M143.988 298.288H140.336V310.463H143.988V298.288Z" fill="#10B981"/>
<path d="M137.903 298.288H134.25V310.463H137.903V298.288Z" fill="#10B981"/>
<path d="M164.688 146.1H79.4625C76.1005 146.1 73.375 148.826 73.375 152.188V176.538C73.375 179.9 76.1005 182.625 79.4625 182.625H164.688C168.05 182.625 170.775 179.9 170.775 176.538V152.188C170.775 148.826 168.05 146.1 164.688 146.1Z" fill="white" stroke="#CBD5E1" stroke-width="2.435"/>
<path d="M91.6408 168.015C93.658 168.015 95.2933 166.38 95.2933 164.362C95.2933 162.345 93.658 160.71 91.6408 160.71C89.6236 160.71 87.9883 162.345 87.9883 164.362C87.9883 166.38 89.6236 168.015 91.6408 168.015Z" fill="#64748B"/>
<path d="M103.813 168.015C105.83 168.015 107.465 166.38 107.465 164.362C107.465 162.345 105.83 160.71 103.813 160.71C101.795 160.71 100.16 162.345 100.16 164.362C100.16 166.38 101.795 168.015 103.813 168.015Z" fill="#64748B"/>
<path d="M115.985 168.015C118.002 168.015 119.637 166.38 119.637 164.362C119.637 162.345 118.002 160.71 115.985 160.71C113.967 160.71 112.332 162.345 112.332 164.362C112.332 166.38 113.967 168.015 115.985 168.015Z" fill="#64748B"/>
<path d="M128.16 168.015C130.178 168.015 131.813 166.38 131.813 164.362C131.813 162.345 130.178 160.71 128.16 160.71C126.143 160.71 124.508 162.345 124.508 164.362C124.508 166.38 126.143 168.015 128.16 168.015Z" fill="#64748B"/>
<path d="M140.336 168.015C142.353 168.015 143.989 166.38 143.989 164.362C143.989 162.345 142.353 160.71 140.336 160.71C138.319 160.71 136.684 162.345 136.684 164.362C136.684 166.38 138.319 168.015 140.336 168.015Z" fill="#64748B"/>
<path d="M396.012 340.9C406.099 340.9 414.275 332.724 414.275 322.637C414.275 312.551 406.099 304.375 396.012 304.375C385.926 304.375 377.75 312.551 377.75 322.637C377.75 332.724 385.926 340.9 396.012 340.9Z" fill="white" stroke="#8B5CF6" stroke-width="3.6525"/>
<path d="M409.406 336.03L424.016 350.64" stroke="#8B5CF6" stroke-width="4.87" stroke-linecap="round"/>
<path d="M255.997 94.9648C268.1 94.9648 277.912 85.1531 277.912 73.0498C277.912 60.9464 268.1 51.1348 255.997 51.1348C243.894 51.1348 234.082 60.9464 234.082 73.0498C234.082 85.1531 243.894 94.9648 255.997 94.9648Z" fill="#10B981"/>
<path d="M246.258 73.0496L252.345 79.1371L265.738 65.7446" stroke="white" stroke-width="3.6525" stroke-linecap="round" stroke-linejoin="round"/>
<path d="M420.36 255.675C430.446 255.675 438.623 247.499 438.623 237.412C438.623 227.326 430.446 219.15 420.36 219.15C410.274 219.15 402.098 227.326 402.098 237.412C402.098 247.499 410.274 255.675 420.36 255.675Z" fill="#EF4444"/>
<path d="M422.792 231.325C422.792 229.98 421.702 228.89 420.357 228.89C419.012 228.89 417.922 229.98 417.922 231.325V236.195C417.922 237.54 419.012 238.63 420.357 238.63C421.702 238.63 422.792 237.54 422.792 236.195V231.325Z" fill="white"/>
<path d="M420.357 245.935C421.702 245.935 422.792 244.845 422.792 243.5C422.792 242.155 421.702 241.065 420.357 241.065C419.012 241.065 417.922 242.155 417.922 243.5C417.922 244.845 419.012 245.935 420.357 245.935Z" fill="white"/>
<path opacity="0.6" d="M195.124 126.62C197.814 126.62 199.994 124.44 199.994 121.75C199.994 119.06 197.814 116.88 195.124 116.88C192.434 116.88 190.254 119.06 190.254 121.75C190.254 124.44 192.434 126.62 195.124 126.62Z" fill="#93C5FD"/>
<path opacity="0.6" d="M316.874 150.97C319.564 150.97 321.744 148.79 321.744 146.1C321.744 143.41 319.564 141.23 316.874 141.23C314.184 141.23 312.004 143.41 312.004 146.1C312.004 148.79 314.184 150.97 316.874 150.97Z" fill="#93C5FD"/>
<path opacity="0.6" d="M182.952 345.77C185.642 345.77 187.822 343.589 187.822 340.9C187.822 338.21 185.642 336.03 182.952 336.03C180.262 336.03 178.082 338.21 178.082 340.9C178.082 343.589 180.262 345.77 182.952 345.77Z" fill="#93C5FD"/>
<path opacity="0.6" d="M329.05 370.12C331.739 370.12 333.92 367.94 333.92 365.25C333.92 362.56 331.739 360.38 329.05 360.38C326.36 360.38 324.18 362.56 324.18 365.25C324.18 367.94 326.36 370.12 329.05 370.12Z" fill="#93C5FD"/>
<path d="M234.278 393.883V390.231L248.888 383.797V388L238.885 392.015L239.02 391.797V392.316L238.885 392.098L248.888 396.114V400.317L234.278 393.883ZM262.533 378.308L255.684 403.751H251.876L258.724 378.308H262.533ZM280.134 393.883L265.524 400.317V396.114L275.526 392.098L275.392 392.316V391.797L275.526 392.015L265.524 388V383.797L280.134 390.231V393.883Z" fill="#6366F1"/>
</svg>
