<svg version="1.1" id="Layer_1" xmlns:x="ns_extend;" xmlns:i="ns_ai;" xmlns:graph="ns_graphs;" xmlns="http://www.w3.org/2000/svg" xmlns:xlink="http://www.w3.org/1999/xlink" x="0px" y="0px" viewBox="0 0 91.8 45.8" style="enable-background:new 0 0 91.8 45.8;" xml:space="preserve">
 <style type="text/css">
  .st0{fill-rule:evenodd;clip-rule:evenodd;fill:#FF5A02;}
 </style>
 <metadata>
  <sfw xmlns="ns_sfw;">
   <slices>
   </slices>
   <sliceSourceBounds bottomLeftOrigin="true" height="45.8" width="91.8" x="154.4" y="-223.1">
   </sliceSourceBounds>
  </sfw>
 </metadata>
 <g>
  <path class="st0" d="M69.4,24.9l5.1-17.8c0.1-0.4-0.3-0.8-0.9-0.8h-9.2l-2.2,14l-2.2-14h-9.2c-0.6,0-1,0.4-0.9,0.8l5.1,17.8
		l-5.3,19.7c-0.1,0.4,0.3,0.8,0.9,0.8h9.2l2.4-14.7l2.4,14.7h9.2c0.6,0,1-0.4,0.9-0.8L69.4,24.9z">
  </path>
  <path class="st0" d="M13.1,7.9c0-1-0.6-1.6-1.7-1.6H9.9V39h1.3c1.2,0,1.8-0.5,1.8-1.6V7.9z M12.2,0c6.9,0,10.9,2.8,10.9,8.4v28.8
		c0,2.7-1,4.7-2.9,6.1c-2,1.4-4.6,2.1-8,2.1H0.9c-0.5,0-0.9-0.3-0.9-0.7v-44C0,0.3,0.4,0,0.9,0H12.2z">
  </path>
  <path class="st0" d="M35.9,13.1v7h3v-7c0-1-0.5-1.6-1.4-1.6C36.5,11.5,36,12,35.9,13.1z M48.3,14.3v10c0,0.4-0.4,0.7-0.9,0.7H35.9
		v13.6c0,1,0.6,1.6,1.6,1.6c0.9,0,1.4-0.5,1.4-1.4V27.2h8.4c0.5,0,0.9,0.3,0.9,0.7v10.7c0,2.2-0.9,4-2.8,5.2
		c-1.9,1.3-4.5,1.9-7.9,1.9c-7.3,0-11.3-2.9-11.3-8.2V15.3C26.3,9,30,6,37.5,6C44.7,6,48.3,8.8,48.3,14.3z">
  </path>
  <path class="st0" d="M90.9,6.4h-4.2V0.7c0-0.4-0.4-0.7-0.9-0.7h-7.2l-1.8,6.3c0,0,0,0.1,0,0.1v6.3v23.6v1.9c0,2.2,0.9,4,2.8,5.2
		c1.8,1.2,4.3,1.8,7.4,1.9c0.1,0,0.2,0,0.3,0c0,0,0.1,0,0.1,0c0.1,0,0.1,0,0.2,0h3.4c0.5,0,0.9-0.3,0.9-0.7V39h-3.3
		c-1.2,0-1.8-0.5-1.8-1.6l0-24.7h5.1V7C91.8,6.7,91.4,6.4,90.9,6.4z">
  </path>
 </g>
</svg>