<svg version="1.1" id="Layer_1" xmlns:x="ns_extend;" xmlns:i="ns_ai;" xmlns:graph="ns_graphs;" xmlns="http://www.w3.org/2000/svg" xmlns:xlink="http://www.w3.org/1999/xlink" x="0px" y="0px" viewBox="0 0 25.4 43" style="enable-background:new 0 0 25.4 43;" xml:space="preserve">
 <style type="text/css">
  .st0{fill:#FFFFFF;}
	.st1{fill:#FFFFFF;fill-opacity:0.6;}
 </style>
 <metadata>
  <sfw xmlns="ns_sfw;">
   <slices>
   </slices>
   <sliceSourceBounds bottomLeftOrigin="true" height="43" width="25.4" x="237.3" y="228.1">
   </sliceSourceBounds>
  </sfw>
 </metadata>
 <g>
  <path class="st0" d="M17.3,32.9c0,1.3-1.1,2.4-2.4,2.4H8V21.4h6.9c1.3,0,2.4,1.1,2.4,2.4V32.9z M8,13.8V0H0v43h16.8
		c4.7,0,8.6-4,8.6-9V22.8c0-5-3.8-9-8.6-9H8z">
  </path>
  <path class="st1" d="M10.2,11.4v-11L21,8.7c3.7,2.9,4.4,7.2,4.4,7.1c-2.4-3-5.7-4.4-7.9-4.4L10.2,11.4z">
  </path>
 </g>
</svg>