<svg class="u-svg" fill="currentColor" viewBox="0 0 1257 218" xmlns="http://www.w3.org/2000/svg"><path d="M799.74,60.43c-3.3-3.26-7.27-5.77-11.63-7.37-4.73-1.74-9.74-2.6-14.78-2.55h-37.37c-3.65,0-5.48,1.82-5.48,5.46v105.99c0,3.65,1.83,5.47,5.48,5.47h5.32c3.65,0,5.48-1.82,5.48-5.47v-37.76h26.57c5.05.05,10.07-.85,14.78-2.65,4.37-1.66,8.33-4.23,11.63-7.54,3.28-3.38,5.85-7.38,7.56-11.76,1.87-4.83,2.8-9.98,2.74-15.16.07-5.15-.86-10.27-2.74-15.07-1.7-4.33-4.28-8.28-7.56-11.59ZM787.37,103.83c-4.04,4.09-9.61,6.13-16.69,6.13h-23.92v-45.22h24.08c6.98,0,12.49,1.96,16.53,5.88,4.04,3.92,6.06,9.42,6.06,16.48,0,7.07-2.01,12.64-6.06,16.73Z"></path><path d="M880.34,92.9c-3.11-3.58-6.99-6.41-11.36-8.28-4.54-1.99-9.69-2.98-15.45-2.98-5.72-.05-11.39,1.02-16.69,3.15-5,2-9.53,5.02-13.29,8.86-3.82,3.98-6.81,8.68-8.8,13.83-2.16,5.41-3.24,11.43-3.24,18.05-.05,5.92,1.05,11.79,3.24,17.29,2.06,5.21,5.17,9.94,9.13,13.91,4.02,3.98,8.79,7.13,14.03,9.27,5.43,2.27,11.46,3.41,18.11,3.41,3.15.02,6.3-.29,9.39-.91,2.71-.55,5.38-1.29,7.98-2.23,3.92-1.44,7.63-3.39,11.04-5.8,1.43-.88,2.28-1.96,2.56-3.23.28-1.27-.03-2.62-.91-4.06l-1.49-2.49c-1.66-2.98-4.15-3.59-7.47-1.82-1.88,1.44-4.53,2.9-7.97,4.39-3.43,1.49-7.48,2.24-12.12,2.24-3.65.02-7.27-.6-10.71-1.82-3.35-1.2-6.43-3.06-9.05-5.46-2.73-2.53-4.93-5.56-6.48-8.94-1.73-3.81-2.69-7.92-2.83-12.09h56.12c.76.03,1.51-.11,2.21-.39.7-.29,1.33-.72,1.86-1.26.51-.53.91-1.15,1.18-1.83s.4-1.41.39-2.14c.06-5.45-.75-10.88-2.41-16.07-1.47-4.61-3.84-8.89-6.98-12.59ZM828.64,116.58c1.21-7.07,4.05-12.56,8.54-16.48,4.49-3.92,9.83-5.88,16.03-5.88,2.62-.05,5.23.43,7.67,1.39,2.44.97,4.66,2.41,6.53,4.24,3.93,3.76,6.01,9.33,6.23,16.73h-44.99Z"></path><path d="M946.7,81.63c-4.65,0-8.75.69-12.29,2.07-3.31,1.26-6.44,2.96-9.3,5.05-2.49,1.82-4.7,4-6.56,6.46-1.47,1.9-2.72,3.95-3.73,6.13h-.33c0-.5.05-1,.17-1.49.22-1.09.33-2.2.33-3.31v-7.46c0-3.64-1.83-5.46-5.48-5.46h-4.65c-3.65,0-5.48,1.82-5.48,5.46v72.88c0,3.64,1.83,5.47,5.48,5.47h5.15c3.65,0,5.48-1.82,5.48-5.47v-34.62c-.03-4.15.67-8.27,2.07-12.17,1.28-3.63,3.25-6.98,5.81-9.86,2.49-2.76,5.51-4.98,8.89-6.54,3.54-1.62,7.4-2.45,11.29-2.4,3.32,0,6.03.55,8.14,1.66,2,1.01,3.67,2.56,4.82,4.47,1.16,2.05,1.92,4.29,2.24,6.62.4,2.74.6,5.51.58,8.28v44.55c0,3.64,1.83,5.47,5.48,5.47h5.15c3.65,0,5.48-1.82,5.48-5.47v-48.2c0-10.71-2.3-18.75-6.9-24.1-4.6-5.35-11.88-8.03-21.84-8.03Z"></path><path d="M1033.39,125.61c-3.29-1.97-6.76-3.61-10.38-4.88-3.71-1.32-7.17-2.65-10.38-3.97-2.88-1.14-5.59-2.67-8.06-4.56-1.03-.78-1.85-1.8-2.41-2.97-.56-1.17-.84-2.45-.8-3.74,0-3.53,1.35-6.18,4.07-7.95,2.69-1.77,6.02-2.65,10.01-2.65,3.99,0,7.39.55,10.21,1.66,2.37.89,4.67,1.94,6.9,3.15,3.32,1.54,5.75.94,7.3-1.82l1.5-2.49c.88-1.55,1.19-2.96.91-4.22-.28-1.27-1.19-2.29-2.74-3.06-2.79-1.6-5.71-2.98-8.72-4.14-3.81-1.54-8.65-2.32-14.51-2.32-3.96-.02-7.9.51-11.72,1.57-3.48.94-6.76,2.48-9.71,4.56-2.75,1.97-4.99,4.55-6.56,7.54-1.6,3.04-2.41,6.54-2.41,10.52,0,4.75,1.08,8.61,3.24,11.59,2.18,3,4.91,5.56,8.06,7.54,3.24,2.06,6.73,3.73,10.38,4.97,3.7,1.27,7.16,2.6,10.39,3.98,2.86,1.18,5.56,2.71,8.05,4.55,1.03.76,1.87,1.76,2.44,2.92.56,1.15.84,2.43.8,3.71,0,3.53-1.33,6.27-3.99,8.2-2.65,1.93-6.09,2.9-10.3,2.9-4.99,0-9.2-.83-12.62-2.49-2.74-1.28-5.4-2.71-7.97-4.3-1.65-.88-3.07-1.27-4.24-1.16-1.17.11-2.31.88-3.42,2.32l-1.66,2.32c-.83,1.22-1.24,2.67-1.16,4.14.11,1.33.88,2.43,2.33,3.31,1.39,1.07,2.86,2.04,4.4,2.9,2.01,1.14,4.09,2.13,6.23,2.98,2.55,1.01,5.19,1.78,7.89,2.32,3.2.63,6.45.94,9.71.91,4.2.05,8.38-.56,12.39-1.82,3.48-1.09,6.72-2.83,9.54-5.13,2.63-2.15,4.74-4.85,6.17-7.92,1.44-3.07,2.17-6.42,2.14-9.8,0-4.75-1.08-8.64-3.24-11.68-2.14-3.02-4.88-5.55-8.06-7.45Z"></path><path d="M1065.45,50.5h-5.65c-3.66,0-5.48,1.82-5.48,5.46v5.47c0,3.64,1.82,5.47,5.48,5.47h5.65c3.65,0,5.48-1.82,5.48-5.47v-5.47c0-3.64-1.83-5.46-5.48-5.46Z"></path><path d="M1065.11,83.62h-5.14c-3.66,0-5.49,1.82-5.49,5.46v72.88c0,3.65,1.83,5.47,5.49,5.47h5.14c3.66,0,5.49-1.82,5.49-5.47v-72.88c0-3.64-1.83-5.46-5.49-5.46Z"></path><path d="M1157.61,93.98c-4.14-3.95-9.02-7.05-14.36-9.1-11.39-4.3-23.97-4.3-35.37,0-5.32,2.06-10.18,5.15-14.28,9.11-4.08,3.97-7.36,8.7-9.64,13.91-2.41,5.5-3.62,11.45-3.57,17.46-.07,6.07,1.15,12.09,3.58,17.66,2.27,5.23,5.54,9.96,9.65,13.93,4.1,3.97,8.95,7.08,14.26,9.18,11.38,4.42,24,4.42,35.37,0,5.34-2.11,10.22-5.24,14.37-9.19,4.12-3.96,7.42-8.69,9.72-13.91,2.35-5.56,3.56-11.53,3.56-17.56s-1.21-12-3.56-17.56c-2.29-5.24-5.6-9.97-9.73-13.92ZM1152.22,137.53c-1.4,3.57-3.52,6.82-6.23,9.54-2.64,2.64-5.77,4.75-9.21,6.21-5.29,2.21-11.11,2.79-16.73,1.68-5.62-1.11-10.79-3.86-14.83-7.91-2.67-2.75-4.78-5.98-6.22-9.52-1.59-3.86-2.38-8-2.33-12.17h.01c-.08-7.97,2.99-15.64,8.54-21.37,4.03-4.08,9.19-6.85,14.82-7.95,5.63-1.11,11.46-.5,16.74,1.75,3.44,1.46,6.57,3.57,9.21,6.21,2.69,2.7,4.81,5.91,6.23,9.44,1.52,3.79,2.28,7.84,2.24,11.92.05,4.16-.71,8.3-2.24,12.17Z"></path><path d="M1249.87,89.66c-4.6-5.35-11.88-8.03-21.84-8.03-4.65,0-8.75.69-12.28,2.07-3.32,1.26-6.45,2.96-9.31,5.05-2.49,1.82-4.7,4-6.56,6.46-1.46,1.9-2.72,3.95-3.73,6.13h-.33c0-.5.05-1,.16-1.49.22-1.09.33-2.2.33-3.31v-7.46c0-3.64-1.82-5.46-5.48-5.46h-4.65c-3.65,0-5.48,1.82-5.48,5.46l.02,72.88c0,3.64,1.83,5.47,5.49,5.47h5.12c3.65,0,5.48-1.82,5.48-5.47v-34.62c-.03-4.15.68-8.27,2.08-12.17,1.27-3.63,3.25-6.98,5.81-9.86,2.49-2.76,5.51-4.98,8.89-6.54,3.53-1.62,7.39-2.44,11.29-2.4,3.32,0,6.03.55,8.13,1.66,2,1,3.67,2.55,4.82,4.47,1.16,2.05,1.93,4.29,2.25,6.62.4,2.74.59,5.51.58,8.28v44.55c0,3.64,1.82,5.47,5.47,5.47h5.15c3.66,0,5.48-1.82,5.48-5.47v-48.2c.01-10.71-2.29-18.75-6.89-24.1Z"></path><path d="M109.29,0C48.94,0,0,48.8,0,109s48.94,109,109.29,109,109.3-48.8,109.3-109S169.66,0,109.29,0ZM143.12,122.51c-14.94,30.43-46.41,52.12-82.86,58.22-2.34.39-3.21-2.96-.97-3.76,13.92-5.02,40.84-18.73,54.57-40.38,11.05-16.15,17.89-48.11-50.01-40.97-2.21.23-3.17-3.24-1.13-4.11,21.71-9.18,38.26-11.03,54.87-11.23,19.77.2,42.17,9.67,25.54,42.23ZM144.73,72.36c-8.72,0-15.8-7.78-15.8-17.38s7.07-17.39,15.8-17.39,15.8,7.78,15.8,17.39-7.1,17.38-15.8,17.38Z"></path><path d="M333.35,110.45c-4.29-2.8-8.85-5.16-13.62-7.04-4.87-1.93-9.41-3.92-13.62-5.96-3.83-1.79-7.36-4.17-10.45-7.04-2.77-2.65-4.15-6.07-4.15-10.27,0-5.08,1.99-9.09,5.98-12.01,3.98-2.92,9.02-4.39,15.11-4.39,4.98,0,9.27.8,12.87,2.4,2.99,1.29,5.9,2.76,8.72,4.39,1.2.82,2.62,1.25,4.07,1.24,1.28-.06,2.42-.97,3.42-2.73l2.33-4.14c1.55-3.09.99-5.57-1.66-7.46-1.42-1.08-2.92-2.05-4.49-2.9-2.13-1.16-4.35-2.13-6.64-2.9-2.77-.94-5.6-1.69-8.47-2.24-3.23-.62-6.52-.93-9.82-.91-5.07-.04-10.12.75-14.94,2.32-4.41,1.42-8.52,3.64-12.12,6.54-3.51,2.84-6.32,6.44-8.22,10.53-1.9,4.09-2.84,8.56-2.74,13.07,0,6.07,1.38,11.1,4.15,15.07,2.79,4,6.34,7.4,10.46,10.02,4.32,2.76,8.88,5.15,13.62,7.12,4.86,2.04,9.39,4.13,13.59,6.28,3.85,1.9,7.38,4.39,10.46,7.37,2.77,2.76,4.15,6.3,4.15,10.6,0,5.08-1.84,9.14-5.55,12.17-3.71,3.04-8.72,4.56-15.03,4.56-2.91.03-5.82-.34-8.64-1.08-2.48-.65-4.89-1.5-7.22-2.55-1.98-.89-3.89-1.92-5.73-3.06-1.66-1.05-2.99-1.96-3.99-2.73-2.99-1.88-5.48-1.54-7.47.99l-2.83,3.98c-1.22,1.66-1.69,3.09-1.41,4.31.32,1.3,1.05,2.46,2.08,3.31,1.7,1.37,3.5,2.61,5.38,3.73,2.53,1.52,5.18,2.85,7.91,3.98,3.25,1.35,6.61,2.4,10.05,3.15,3.9.85,7.88,1.27,11.88,1.26,5.87,0,11.1-.89,15.69-2.65,4.32-1.6,8.3-4.02,11.71-7.12,3.18-2.94,5.67-6.54,7.31-10.54,1.68-4.13,2.52-8.55,2.49-13,0-6.29-1.38-11.45-4.14-15.49-2.79-4.05-6.34-7.51-10.46-10.19Z"></path><path d="M457.42,81.63c-3.33-.02-6.64.51-9.8,1.57-3.01,1.01-5.86,2.43-8.47,4.22-2.52,1.75-4.81,3.81-6.81,6.13-1.88,2.14-3.44,4.54-4.65,7.12h-.33c-2.99-12.7-11.4-19.05-25.24-19.05-3.26-.01-6.5.58-9.55,1.74-3,1.13-5.85,2.64-8.47,4.47-2.56,1.77-4.86,3.89-6.83,6.29-1.81,2.17-3.3,4.6-4.4,7.2h-.33c0-.5.05-1,.17-1.49.22-1.09.33-2.2.33-3.31v-7.46c0-3.64-1.83-5.46-5.48-5.46h-4.65c-3.65,0-5.48,1.82-5.48,5.46v72.89c0,3.64,1.82,5.47,5.48,5.47h5.15c3.65,0,5.48-1.82,5.48-5.47v-33.64c0-3.92.57-7.83,1.66-11.59,1.04-3.71,2.7-7.21,4.92-10.36,2.11-2.99,4.83-5.5,7.97-7.37,3.23-1.89,6.93-2.85,10.67-2.8,3.22,0,5.8.57,7.74,1.7,1.89,1.11,3.41,2.74,4.4,4.69,1.05,2.1,1.72,4.37,1.99,6.71.34,2.64.51,5.29.5,7.95v44.71c0,3.64,1.77,5.47,5.32,5.47h5.32c3.54,0,5.32-1.82,5.32-5.47v-33.64c0-3.98.56-7.94,1.66-11.76,1.03-3.71,2.69-7.21,4.9-10.35,2.08-2.96,4.77-5.43,7.89-7.27,3.17-1.84,6.79-2.79,10.46-2.73,3.09,0,5.61.55,7.56,1.65,1.88,1.05,3.43,2.6,4.48,4.47,1.11,2.06,1.84,4.3,2.16,6.62.4,2.74.6,5.51.58,8.28v44.71c0,3.64,1.83,5.47,5.48,5.47h5.15c3.65,0,5.48-1.82,5.48-5.47v-48.2c0-10.71-2.21-18.75-6.64-24.1-4.43-5.35-11.46-8.03-21.1-8.03Z"></path><path d="M529.47,81.65c-6.42-.02-11.93.81-16.53,2.48s-8.17,3.22-10.71,4.64c-2.99,1.66-3.6,4.14-1.83,7.46l1.34,2.3c1.77,2.87,4.26,3.53,7.48,1.98,2.47-1.37,5.06-2.54,7.72-3.48,3.6-1.27,7.39-1.88,11.21-1.82,2.41-.02,4.81.29,7.14.91,2.15.57,4.13,1.62,5.82,3.07,1.75,1.56,3.08,3.52,3.9,5.71.94,2.39,1.41,5.29,1.41,8.69v2.15h-4.32c-2.88,0-6.12.11-9.72.33-3.7.23-7.39.68-11.04,1.32-3.71.65-7.35,1.65-10.88,2.98-3.36,1.26-6.52,2.98-9.39,5.14-2.77,2.1-5.04,4.79-6.64,7.87-1.66,3.15-2.49,6.87-2.49,11.18,0,3.98.77,7.48,2.33,10.51,1.52,2.99,3.64,5.64,6.23,7.78,2.67,2.2,5.75,3.86,9.05,4.89,3.43,1.11,7.01,1.67,10.62,1.66,4.98,0,9.19-.91,12.62-2.73,3.1-1.59,5.96-3.63,8.47-6.05,2.57-2.57,4.7-5.53,6.31-8.78h.33c-.11.44-.22.9-.33,1.33-.12.54-.18,1.1-.17,1.65v7.12c0,3.65,1.83,5.47,5.48,5.47h4.16c3.65,0,5.48-1.82,5.48-5.47v-47.52c0-10.71-2.88-18.86-8.64-24.43-5.76-5.57-13.9-8.36-24.41-8.36ZM546.56,129.99c-.01,3.19-.55,6.35-1.58,9.37-1.02,3.09-2.54,6-4.49,8.61-1.9,2.57-4.33,4.72-7.12,6.29-2.92,1.63-6.21,2.45-9.55,2.4-5.2,0-9.1-1.4-11.71-4.22-2.6-2.82-3.91-5.88-3.91-9.19,0-3.97,1.21-7.09,3.64-9.36,2.57-2.34,5.63-4.07,8.97-5.05,3.62-1.12,7.35-1.81,11.13-2.07,3.88-.28,7.31-.43,10.3-.43h4.32v3.65Z"></path><path d="M617.83,82.97c-3.07-.03-6.1.62-8.89,1.9-2.71,1.27-5.2,2.94-7.39,4.97-2.23,2.06-4.16,4.43-5.73,7.03-1.56,2.55-2.81,5.27-3.73,8.12h-.33c0-.61.06-1.22.17-1.82.12-.66.2-1.32.25-1.99.06-.77.08-1.6.08-2.49v-9.61c0-3.64-1.83-5.46-5.48-5.46h-4.65c-3.65,0-5.48,1.82-5.48,5.46v72.91c0,3.65,1.83,5.47,5.48,5.47h5.15c3.65,0,5.48-1.82,5.48-5.47v-29.15c0-4.16.51-8.3,1.5-12.35.89-3.91,2.43-7.63,4.56-11.03,1.97-3.12,4.57-5.8,7.64-7.87,3.04-2.04,6.61-3.06,10.71-3.06s5.98-1.82,5.98-5.47v-4.64c0-3.64-1.77-5.47-5.32-5.47Z"></path><path d="M674.45,153.68c-1.72-.14-3.41-.44-5.07-.91-1.89-.53-3.65-1.46-5.15-2.73-1.77-1.54-3.16-3.47-4.07-5.63-1.11-2.43-1.66-5.63-1.66-9.61v-37.29h14.78c3.54,0,5.32-1.82,5.32-5.47v-2.13c0-3.64-1.83-5.47-5.48-5.47h-14.62v-18.39c0-3.64-1.83-5.47-5.48-5.47h-4.82c-3.65,0-5.48,1.82-5.48,5.47v18.41h-5.98c-3.65,0-5.48,1.82-5.48,5.47v2.13c0,3.64,1.77,5.47,5.32,5.47h5.81v39.77c0,5.3.84,9.88,2.55,13.75,1.57,3.65,3.9,6.92,6.83,9.61,2.85,2.56,6.22,4.48,9.88,5.63,3.86,1.23,7.9,1.84,11.95,1.82,4.43,0,6.64-1.82,6.64-5.46v-3.5c0-1.88-.42-3.2-1.25-3.98-.83-.77-2.35-1.27-4.56-1.49Z"></path></svg>